# xmcd CD database file
#
# Track frame offsets:
#	150
#	14813
#	32581
#	49460
#	63206
#	76143
#	86827
#	105154
#	122292
#	135717
#	158477
#	188394
#	208841
#	230812
#	240897
#	254461
#	267118
#	285549
#	299217
#
# Disc length: 4125 seconds
#
# Revision: 0
# Processed by: cddbd v1.5.1PL0 Copyright (c) Steve Scherf et al.
# Submitted via: Feurio! 1.66 - http://www.feurio.com
#
DISCID=05101b13
DTITLE=Various Artist - barely legal 1
DYEAR=1900
DGENRE=blues
TTITLE0=giant sand - shiver
TTITLE1=silos - northern lights
TTITLE2=damnations tx - copper kettle
TTITLE3=tom waits - books of moses
TTITLE4=hannah marcus - lot 309
TTITLE5=sylvia juncosa - open ocean
TTITLE6=calexico - service and repair
TTITLE7=flatirons - crazy train
TTITLE8=the mountain goats - family happiness
TTITLE9=the ex - frenzy
TTITLE10=songs: ohia - lioness
TTITLE11=built to spill - still flat
TTITLE12=camper van beethoven - klondike
TTITLE13=mark lanegan - cripple creek
TTITLE14=cadallaca - the trouble with public spaces
TTITLE15=chris mills - 1000 blue eyed girls
TTITLE16=souled american - make me laugh, make me cry
TTITLE17=dealership - nerdy girl
TTITLE18=bikini kill - i like fucking
EXTD=
EXTT0=
EXTT1=
EXTT2=
EXTT3=
EXTT4=
EXTT5=
EXTT6=
EXTT7=
EXTT8=
EXTT9=
EXTT10=
EXTT11=
EXTT12=
EXTT13=
EXTT14=
EXTT15=
EXTT16=
EXTT17=
EXTT18=
PLAYORDER=
